<?xml version="1.0" standalone="no"?>
<!DOCTYPE svg PUBLIC "-//W3C//DTD SVG 20010904//EN"
 "http://www.w3.org/TR/2001/REC-SVG-20010904/DTD/svg10.dtd">
<svg version="1.0" xmlns="http://www.w3.org/2000/svg"
 width="512.000000pt" height="512.000000pt" viewBox="0 0 512.000000 512.000000"
 preserveAspectRatio="xMidYMid meet">
<metadata>
Created by potrace 1.14, written by Peter Selinger 2001-2017
</metadata>
<g transform="translate(0.000000,512.000000) scale(0.100000,-0.100000)"
fill="#000000" stroke="none">
<path d="M1888 5115 c-2 -1 -21 -5 -44 -8 -182 -25 -392 -186 -495 -378 -26
-48 -36 -58 -72 -69 -78 -23 -162 -75 -233 -145 -119 -118 -173 -240 -180
-404 l-4 -94 -42 -25 c-64 -37 -145 -109 -189 -166 -22 -28 -44 -56 -49 -63
-21 -25 -81 -166 -97 -225 -26 -99 -24 -275 5 -366 l23 -74 -54 -57 c-58 -61
-119 -149 -132 -191 -4 -14 -11 -29 -15 -35 -34 -43 -60 -305 -38 -380 4 -16
11 -43 14 -60 7 -43 40 -129 74 -193 l29 -55 -24 -36 c-66 -98 -107 -259 -100
-391 4 -92 5 -100 29 -180 16 -52 71 -161 100 -197 8 -10 27 -33 42 -51 26
-32 27 -39 29 -155 3 -170 40 -282 140 -422 123 -173 333 -289 532 -294 28 -1
38 -9 72 -58 103 -151 276 -270 461 -318 70 -19 252 -28 303 -15 18 4 57 13
87 20 30 7 62 16 70 21 8 4 40 20 70 35 30 14 75 40 100 57 64 43 190 174 225
235 17 28 32 52 35 52 3 0 19 -24 35 -52 43 -74 188 -215 270 -264 140 -81
241 -108 405 -108 87 0 134 6 193 22 183 52 336 159 444 309 31 43 52 63 66
64 247 6 480 157 600 388 61 115 79 191 81 327 l2 121 41 48 c52 60 115 181
139 265 13 47 18 96 17 180 -1 148 -28 250 -97 359 l-26 40 34 63 c40 74 72
169 85 253 9 57 8 207 -2 250 -35 149 -83 239 -185 347 l-53 56 22 69 c15 49
22 98 24 177 2 107 -6 159 -41 266 -49 146 -177 303 -310 381 l-45 26 -3 89
c-4 96 -6 103 -31 179 -56 167 -220 327 -383 376 -36 11 -46 20 -68 63 -81
161 -240 300 -413 359 -276 95 -600 -21 -768 -274 -14 -22 -29 -39 -33 -39 -4
0 -19 17 -32 38 -91 137 -253 251 -413 292 -44 11 -218 23 -227 15z"/>
</g>
</svg>
